<svg width="13" height="12" viewBox="0 0 13 12" fill="none" xmlns="http://www.w3.org/2000/svg">
<path d="M5.57248 1.30158C5.90896 0.466624 7.09104 0.466624 7.42752 1.30158L8.21007 3.24345C8.35322 3.59866 8.68666 3.84092 9.06872 3.8673L11.1574 4.01148C12.0554 4.07348 12.4207 5.19769 11.7306 5.77572L10.1256 7.12005C9.83201 7.36595 9.70465 7.75794 9.79763 8.12945L10.3059 10.1604C10.5245 11.0337 9.56817 11.7285 8.80518 11.2508L7.03067 10.1398C6.70608 9.93653 6.29392 9.93653 5.96933 10.1398L4.19482 11.2508C3.43183 11.7285 2.47551 11.0337 2.69407 10.1604L3.20237 8.12945C3.29535 7.75794 3.16799 7.36595 2.8744 7.12005L1.26939 5.77572C0.579278 5.19769 0.944559 4.07348 1.84263 4.01148L3.93128 3.8673C4.31334 3.84092 4.64678 3.59866 4.78993 3.24345L5.57248 1.30158Z" fill="#FF9777"/>
</svg>
